
<svg xmlns="http://www.w3.org/2000/svg" version="1.1" xmlns:xlink="http://www.w3.org/1999/xlink" preserveAspectRatio="none" x="0px" y="0px" width="500px" height="500px" viewBox="0 0 500 500">
<defs>
<g id="Symbol_1_0_Layer0_0_FILL">
<path fill="#FFFFFF" stroke="none" d="
M 88.25 -88.2
Q 51.7 -124.75 0.05 -124.75 -51.65 -124.75 -88.2 -88.2 -124.75 -51.65 -124.75 0.05 -124.75 51.7 -88.2 88.25 -51.65 124.8 0.05 124.8 51.7 124.8 88.25 88.25 124.8 51.7 124.8 0.05 124.8 -51.65 88.25 -88.2
M 116.3 -4.65
Q 116.3322265625 -4.3716796875 116.35 -3.75
L 116.35 -3.7
Q 116.4 -0.9130859375 116.4 0.05 116.4 48.25 82.3 82.3 48.25 116.4 0.05 116.4 -44.2037109375 116.4 -76.5 87.7 35.2017578125 53.9078125 116.35 -3.7 4.7099609375 38.36484375 -101 58.4 -108.5087890625 45.665234375 -112.35 31.4 11.5103515625 19.376953125 116.3 -4.65 -2.7359375 5.209375 -116.15 7.65 -116.35 3.8962890625 -116.35 0.05 -116.35 -9.794921875 -114.95 -19.05
L 116.3 -4.65 Z"/>

<path fill="#84D8EE" stroke="none" d="
M 82.3 82.3
Q 116.4 48.25 116.4 0.05 116.4 -0.9130859375 116.35 -3.7 35.2017578125 53.9078125 -76.5 87.7 -44.2037109375 116.4 0.05 116.4 48.25 116.4 82.3 82.3
M 116.35 -3.75
Q 116.3322265625 -4.3716796875 116.3 -4.65 11.5103515625 19.376953125 -112.35 31.4 -108.5087890625 45.665234375 -101 58.4 4.7099609375 38.36484375 116.35 -3.7
L 116.35 -3.75
M -116.35 0.05
Q -116.35 3.8962890625 -116.15 7.65 -2.7359375 5.209375 116.3 -4.65
L -114.95 -19.05
Q -116.35 -9.794921875 -116.35 0.05 Z"/>
</g>

<g id="Symbol_5_0_Layer0_0_FILL">
<path fill="#FFFFFF" stroke="none" d="
M 23.85 -16.8
Q 34 -12.75 39.7 -13.15 36.45 -10.95 33.2 -5.3 30.45 -0.25 24.15 3.55 22 2.95 21.05 3.85 20.05 4.7 17.9 5.55 15.7 6.35 15 7.65 14.3 8.95 14.25 10.35 14.15 11.75 14.95 13.05 15.7 14.3 17.1 15.35 18.45 16.35 19.65 17.05 20.8 17.75 21.6 18.1 22.4 18.45 22.75 18.9 23.05 19.3 23.2 19.5
L 24.75 21.3 32.25 19.15
Q 30.9 17.2 31.4 14.85 31.9 12.45 31.6 10.4 50.7 -2.2 60 -6.7 69.3 -11.25 68.3 -12.45 67.2 -13.7 66.2 -16.25 65.2 -18.8 62.55 -21.75 60.8 -23.65 58.5 -25.7 52.55 -31 43.05 -34.45
L 1.1 -40
Q -0.15 -38.1 -1.3 -35.25 -2.5 -32.4 -2.6 -28.85 -2.75 -25.4 -7.6 -22.2 -12.5 -19 -15.9 -11.4 -19.35 -3.8 -27.35 -2.25 -35.4 -0.75 -39.75 6.65 -44.1 14.05 -48.3 15 -50.3 15.45 -51.45 15.6 -52.85 15.85 -53.9 15.55 -57.4 14.2 -60.55 13.75 -64 13.5 -64.95 15.65 -66.2 18.3 -66.2 21.5 -66.25 24.65 -66.15 25.3 -66.1 25.9 -66.25 26.95 -66.35 27.45 -66.45 28 -66.55 28.25 -66.6 28.5 -66.8 29.3 -67.1 30.1 -67.2 30.25 -67.25 30.4 -67.4 30.8 -67.6 31.2 -67.85 32.15 -68 33 -68.65 36.4 -68 40
L -59.65 39.35
Q -59.45 38.5 -59.25 37.65 -58.6 34.95 -51.8 31.7 -51 31.45 -50.85 29.5 -51.25 28.7 -49.85 27.95
L -14.1 7.45
Q -10.3 6.8 -6.3 2.7 3.55 2.15 23.85 -16.8 Z"/>
</g>

<g id="Symbol_2_0_Layer0_0_FILL">
<path fill="#000000" stroke="none" d="
M 5.45 -56.2
Q 10.3 -52.25 16.65 -51.25
L 20.1 -39.05
Q 9.05 -33.7 -5.8 -16.4 -10.8 -11.45 -17.5 -10.9 -27.05 -9.25 -30.1 -0.7 -31.3 2.75 -32.1 9.3 -33.35 11.8 -37.3 14.15 -42.05 16.85 -44 22.8 -48.25 32.25 -58.65 34.05 -63.4 35 -65.8 38.15 -73.2 50.95 -80.95 51.7 -83.95 52.25 -88.6 50.75 -93.25 49.2 -94.35 51.7 -95.5 54.2 -95.2 59.3 -95.2 62.45 -96.7 65.65 -98.4 71.55 -96.2 75.95 -95.45 77.45 -93.4 77.8 -92.3 77.85 -92.35 76.75 -92.1 73.55 -91.35 70.7 -90.7 68 -83.9 64.75 -83.1 64.5 -83.45 62.35 -83.35 61.75 -82.35 61.25
L -44.95 39.9
Q -42.6 39.3 -38.2 35.75 -20.1 29.35 -7.95 16.1 3.65 21.1 11.6 19.25 12.8 18.85 13.75 19.05 14.05 20.2 13.85 21.1 8.7 21.4 3.5 30.4 0.75 35.45 -5.6 39.25 -8.1 38.5 -8.7 39.25 -10.8 41.05 -13.1 41.7 -15.55 43.2 -15 45.5 -15.05 47.5 -10.6 50.2 -7.35 52.05 -6 53.85 -4.8 56.6 -1.4 58.85 2 61.1 3.8 60.2 5.75 59.2 3.85 58.05 1.95 56.85 0.2 54.4 -1.6 51.95 -0.8 49.3 -0.1 46.7 -0.7 44.15 16.35 32.4 32.65 24.4 35.9 22.3 33.9 18.45 31.9 14.6 25.95 9.3 20 4 11.7 1.4 10.1 0.7 11.55 -0.2 12.95 -1.1 17 -2.95 20.65 -4.55 24.05 -4.25 32.5 -3.75 39.3 -12.55
L 43.9 -18.15
Q 44.7076171875 -18.5421875 44.75 -17.95 44.8357421875 -17.369140625 45.1 -15.35 45.369140625 -13.274609375 48.95 -14.1 49.49453125 -14.284765625 53.25 -13.4 53.5 -12.9 53.9 -12.6 54.4 -12.25 55.35 -12.9
L 55.95 -13.4 64.6 -13.4
Q 68 -14.15 68.3 -17.15 68.55 -18.65 68.2 -20.3 73.3 -20.3 77.8 -21.15 79.95 -21.75 82.7 -24.6 86.25 -29.2 87.65 -34.85 90.4 -35 91.55 -37.45 95.17421875 -37.28203125 96.1 -38.3 97.0728515625 -39.2623046875 94.65 -38.55
L 93.5 -38.55
Q 91.55 -38.65 92.95 -39.65
L 95.65 -41.35
Q 97.9685546875 -44.644140625 94.4 -42.05
L 92.9 -41.25
Q 91.05 -40.4 91.6 -41.85
L 93.25 -47.35
Q 93.2 -49.6 92.2 -47.35
L 90.75 -44.2
Q 90.1 -43.35 89.45 -43.65 89 -44 89.15 -44.95
L 89.95 -49.3
Q 89.85 -52.2 88.8 -49.3
L 87.45 -44.25
Q 86.25 -42.1 83.35 -43.05
L 82.6 -44.05
Q 82.75625 -45.6818359375 81.95 -45.05 81.198828125 -44.375390625 81.5 -43.05 81.8 -41.6646484375 82.2 -41.45 81.7220703125 -39.6244140625 82.4 -38.65 78.2 -35.35 74.55 -31.45 64.9 -33.15 56.5 -33.75 51.3 -34.8 46.5 -34.7 43.45 -37.4 40.75 -39.15 36.45 -46.35 30.05 -51.9 26.8 -57.85 21.25 -63.85 1.65 -69.15 -1.9 -68.7 -3.65 -70.65 -5.75 -71.65 -8.15 -72.55 -9.65 -72.7
L -14.5 -77.6
Q -15.95 -78.15 -15.35 -76.8
L -12.25 -73
Q -11.95 -72.05 -13.2 -72.45
L -17.95 -73.7
Q -20.25 -74.25 -19.4 -73.35 -18.55 -72.45 -15.4 -71.7 -12.25 -71 -13.6 -70
L -21.45 -69.3
Q -23.65 -68.55 -21.45 -68
L -14.4 -68
Q -12.85 -67.9 -13.85 -66.45 -14.15 -65.75 -19.5 -64.6 -21.6 -63.7 -19.2 -63.65
L -12.2 -64.55
Q -10.85 -64.3 -10.35 -63 -10 -61.2 -11.25 -59.95
L -12.25 -58.65
Q -12.7 -57.65 -11.45 -57.6 -9.1 -59.15 -6.25 -62.2 -4.05 -64.25 -0.4 -61.55 3.3 -58.5 5.45 -56.2 Z"/>
</g>

<g id="Symbol_3_0_Layer0_0_FILL">
<path fill="#000000" stroke="none" d="
M 32.15 -7.55
L 7.55 -7.55 5.1 -30.55 -7.45 -7.55 -32.1 -7.55 -15.4 7.05 -27.75 29.6 -5.4 15.75 11.6 30.6 9.1 6.75 32.15 -7.55 Z"/>
</g>

<g id="Symbol_4_0_Layer0_0_FILL">
<path fill="#FFFFFF" stroke="none" d="
M -26 3.15
Q -27.6265625 1.975390625 -27.65 1.05 -27.8529296875 1.6 -29.6 3.3 -31.7533203125 5.5095703125 -32.5 7.25 -33.1908203125 9.00390625 -33.25 11.7 -33.31875 14.4318359375 -34.05 18
L -34 18
Q -34.1291015625 18.7458984375 -35.3 19.3 -42.8939453125 23.0544921875 -46.75 31.45 -45.65 30.3 -45 29.4 -44.6 28.8 -43.95 28.15
L -41.75 25.6
Q -38.0828125 21.94140625 -36.55 21.25 -35.0130859375 20.609765625 -34.05 20.35 -33.0943359375 20.1353515625 -32.8 17.75 -32.4603515625 15.41171875 -32.35 11.55 -32.1794921875 7.748046875 -30.55 5.6 -28.91796875 3.461328125 -26 3.15
M 15.6 -56.15
Q 13.9 -57.2 5.25 -59.15 -3.45 -61.05 -4.2 -60.4 0.4 -60 8.3 -57.7 16.2 -55.45 20.2 -50.3
L 24.8 -42.95
Q 27.55 -38.5 26.25 -33.75 30.35 -34.25 34.95 -33.4 32.2 -35.4 31.45 -37.85 30.1 -40.7 27.75 -42.35 26.3 -43.4 24.95 -45.6
L 23.45 -48
Q 19.85 -53.85 15.6 -56.15
M 7.65 12.05
Q 12.3615234375 12.661328125 15.3 14.45 18.2353515625 16.2357421875 24.8 21.35 22.0529296875 18.405859375 18.5 14.75 14.996875 11.14609375 7.6 10.2 4.2 9.6 1.6 10.2 -3.5 11.75 -6.45 15.85 -6.2 15.95 -4.1 14.65 -1.65 13.2 -0.95 12.95 2.9986328125 11.4978515625 7.65 12.05
M -65.45 44.85
Q -63.65 42.85 -63.75 42.85 -66.8 44.1 -68.6 46.3 -70.45 48.45 -71.35 50.55 -74.6 57.35 -82.85 60.3 -83.3 60.75 -81 60.5 -77.85 59.9 -74.6 57.1 -71.35 54.25 -69.55 51 -68.35 48.8 -63.55 49.95 -64.15 49.55 -65.7 48.2 -67.3 46.8 -65.45 44.85
M 7.15 31
Q 8.95 29.15 7.7 29.7 5.3 30.8 3.5 34.25 1.65 37.65 0.2 39.8 -1.25 41.9 -4 44.15 -5.55 45.35 -6.25 45.8 1.25 42.1 3.45 36.45 4.35 34.6 6.55 36.25 5.5 32.85 7.15 31
M 72.95 -16.85
Q 57.55 -16.45 49 -15.6 62.7 -13.8 72.95 -16.85
M 74.4 -19.8
L 78.15 -21.3
Q 77.8 -19.4 76.65 -17.45 79.9 -19.65 82.95 -29.25 82.95 -29.4 82.95 -29.55 82.6 -28.95 82.15 -28.25 81.1 -26.15 79.35 -24.2 77.55 -22.1 74.65 -20 74.5 -19.9 74.4 -19.8
M 52 -26.1
Q 48.6 -27.8 43.7 -27.15 49.3 -26.75 52.35 -24.6
L 49.55 -23.6
Q 51.1 -23.55 52.45 -22.6 49.6 -21.9 48.85 -20.8 50.8 -21.7 54 -22.05 54.45 -22.2 54.7 -22.55 55.4 -24.45 52 -26.1
M 6.1 -6.7
Q 6.1 -6.65 6.1 -6.6 2.1 -5.35 -0.05 -2.95 5.85 -5 11.55 -4.85 17.2 -4.75 22.55 -6.5 27 -7.9 35.9 -12.5
L 33.7 -12.35
Q 30.85 -12.1 27.05 -11.15 22.25 -9.8 19.8 -9.2 15.6 -8.15 7 -6.85 6.55 -6.8 6.1 -6.7 Z"/>
</g>

<path id="Logo_0_Layer0_0_1_STROKES" stroke="#FFFFFF" stroke-width="0.1" stroke-linejoin="round" stroke-linecap="round" fill="none" d="
M 29.15 -4.55
Q 23.2 -9.85 13.7 -13.3
L -28.25 -18.85
Q -29.5 -16.95 -30.65 -14.1 -31.85 -11.25 -31.95 -7.7 -32.1 -4.25 -36.95 -1.05 -41.85 2.15 -45.25 9.75 -48.7 17.35 -56.7 18.9 -64.75 20.4 -69.1 27.8 -73.45 35.2 -77.65 36.15 -79.65 36.6 -80.8 36.75 -82.2 37 -83.25 36.7 -86.75 35.35 -89.9 34.9 -93.35 34.65 -94.3 36.8 -95.55 39.45 -95.55 42.65 -95.6 45.8 -95.5 46.45 -95.45 47.05 -95.6 48.1 -95.7 48.6 -95.8 49.15 -95.9 49.4 -95.95 49.65 -96.15 50.45 -96.45 51.25 -96.55 51.4 -96.6 51.55 -96.75 51.95 -96.95 52.35 -97.2 53.3 -97.35 54.15 -98 57.55 -97.35 61.15
L -89 60.5
Q -88.8 59.65 -88.6 58.8 -87.95 56.1 -81.15 52.85 -80.35 52.6 -80.2 50.65 -80.6 49.85 -79.2 49.1
L -43.45 28.6
Q -39.65 27.95 -35.65 23.85 -25.8 23.3 -5.5 4.35 4.65 8.4 10.35 8 7.1 10.2 3.85 15.85 1.1 20.9 -5.2 24.7 -7.35 24.1 -8.3 25 -9.3 25.85 -11.45 26.7 -13.65 27.5 -14.35 28.8 -15.05 30.1 -15.1 31.5 -15.2 32.9 -14.4 34.2 -13.65 35.45 -12.25 36.5 -10.9 37.5 -9.7 38.2 -8.55 38.9 -7.75 39.25 -6.95 39.6 -6.6 40.05 -6.3 40.45 -6.15 40.65
L -4.6 42.45 2.9 40.3
Q 1.55 38.35 2.05 36 2.55 33.6 2.25 31.55 21.35 18.95 30.65 14.45 39.95 9.9 38.95 8.7 37.85 7.45 36.85 4.9 35.85 2.35 33.2 -0.6 31.45 -2.5 29.15 -4.55 Z"/>

<path id="Symbol_2_0_Layer0_0_1_STROKES" stroke="#000000" stroke-width="0.1" stroke-linejoin="round" stroke-linecap="round" fill="none" d="
M -0.7 44.15
Q 16.35 32.4 32.65 24.4 35.9 22.3 33.9 18.45 31.9 14.6 25.95 9.3 20 4 11.7 1.4 10.1 0.7 11.55 -0.2 12.95 -1.1 17 -2.95 20.65 -4.55 24.05 -4.25 32.5 -3.75 39.3 -12.55
L 43.9 -18.15
Q 44.7076171875 -18.5421875 44.775 -17.95 44.8357421875 -17.369140625 45.1 -15.325 45.369140625 -13.274609375 48.95 -14.1 49.49453125 -14.284765625 53.25 -13.4 53.5 -12.9 53.9 -12.6 54.4 -12.25 55.35 -12.9
L 55.95 -13.4 64.6 -13.4
Q 68 -14.15 68.3 -17.15 68.55 -18.65 68.2 -20.3 73.3 -20.3 77.8 -21.15 79.95 -21.75 82.7 -24.6 86.25 -29.2 87.65 -34.85 90.4 -35 91.55 -37.45 95.17421875 -37.28203125 96.125 -38.275 97.0728515625 -39.2623046875 94.65 -38.55
L 93.5 -38.55
Q 91.55 -38.65 92.95 -39.65
L 95.65 -41.35
Q 97.9685546875 -44.644140625 94.4 -42.05
L 92.9 -41.25
Q 91.05 -40.4 91.6 -41.85
L 93.25 -47.35
Q 93.2 -49.6 92.2 -47.35
L 90.75 -44.2
Q 90.1 -43.35 89.45 -43.65 89 -44 89.15 -44.95
L 89.95 -49.3
Q 89.85 -52.2 88.8 -49.3
L 87.45 -44.25
Q 86.25 -42.1 83.35 -43.05
L 82.6 -44.05
Q 82.75625 -45.6818359375 81.975 -45.025 81.198828125 -44.375390625 81.5 -43.025 81.8 -41.6646484375 82.2 -41.45 81.7220703125 -39.6244140625 82.4 -38.65 78.2 -35.35 74.55 -31.45 64.9 -33.15 56.5 -33.75 51.3 -34.8 46.5 -34.7 43.45 -37.4 40.75 -39.15 36.45 -46.35 30.05 -51.9 26.8 -57.85 21.25 -63.85 1.65 -69.15 -1.9 -68.7 -3.65 -70.65 -5.75 -71.65 -8.15 -72.55 -9.65 -72.7
L -14.5 -77.6
Q -15.95 -78.15 -15.35 -76.8
L -12.25 -73
Q -11.95 -72.05 -13.2 -72.45
L -17.95 -73.7
Q -20.25 -74.25 -19.4 -73.35 -18.55 -72.45 -15.4 -71.7 -12.25 -71 -13.6 -70
L -21.45 -69.3
Q -23.65 -68.55 -21.45 -68
L -14.4 -68
Q -12.85 -67.9 -13.85 -66.45 -14.15 -65.75 -19.5 -64.6 -21.6 -63.7 -19.2 -63.65
L -12.2 -64.55
Q -10.85 -64.3 -10.35 -63 -10 -61.2 -11.25 -59.95
L -12.25 -58.65
Q -12.7 -57.65 -11.45 -57.6 -9.1 -59.15 -6.25 -62.2 -4.05 -64.25 -0.4 -61.55 3.3 -58.5 5.45 -56.2 10.3 -52.25 16.65 -51.25
L 20.1 -39.05
Q 9.05 -33.7 -5.8 -16.4 -10.8 -11.45 -17.5 -10.9 -27.05 -9.25 -30.1 -0.7 -31.3 2.75 -32.1 9.3 -33.35 11.8 -37.3 14.15 -42.05 16.85 -44 22.8 -48.25 32.25 -58.65 34.05 -63.4 35 -65.8 38.15 -73.2 50.95 -80.95 51.7 -83.95 52.25 -88.6 50.75 -93.25 49.2 -94.35 51.7 -95.5 54.2 -95.2 59.3 -95.2 62.45 -96.7 65.65 -98.4 71.55 -96.2 75.95 -95.45 77.45 -93.4 77.8 -92.3 77.85 -92.35 76.75 -92.1 73.55 -91.35 70.7 -90.7 68 -83.9 64.75 -83.1 64.5 -83.45 62.35 -83.35 61.75 -82.35 61.25
L -44.95 39.9
Q -42.6 39.3 -38.2 35.75 -20.1 29.35 -7.95 16.1 3.65 21.1 11.6 19.25 12.8 18.85 13.75 19.05 14.05 20.2 13.85 21.1 8.7 21.4 3.5 30.4 0.75 35.45 -5.6 39.25 -8.1 38.5 -8.7 39.25 -10.8 41.05 -13.1 41.7 -15.55 43.2 -15 45.5 -15.05 47.5 -10.6 50.2 -7.35 52.05 -6 53.85 -4.8 56.6 -1.4 58.85 2 61.1 3.8 60.2 5.75 59.2 3.85 58.05 1.95 56.85 0.2 54.4 -1.6 51.95 -0.8 49.3 -0.1 46.7 -0.7 44.15 Z"/>

<path id="Symbol_3_0_Layer0_0_1_STROKES" stroke="#FFFFFF" stroke-width="1.5" stroke-linejoin="round" stroke-linecap="round" fill="none" d="
M 5.1 -30.55
L -7.45 -7.55 -32.1 -7.55 -15.4 7.05 -27.75 29.6 -5.4 15.75 11.6 30.6 9.1 6.75 32.15 -7.55 7.55 -7.55 5.1 -30.55 Z"/>

<path id="Symbol_4_0_Layer0_0_1_STROKES" stroke="#FFFFFF" stroke-width="0.1" stroke-linejoin="round" stroke-linecap="round" fill="none" d="
M 26.25 -33.75
Q 30.35 -34.25 34.95 -33.4 32.2 -35.4 31.45 -37.85 30.1 -40.7 27.75 -42.35 26.3 -43.4 24.95 -45.6
L 23.45 -48
Q 19.85 -53.85 15.6 -56.15 13.9 -57.2 5.25 -59.15 -3.45 -61.05 -4.2 -60.4 0.4 -60 8.3 -57.7 16.2 -55.45 20.2 -50.3
L 24.8 -42.95
Q 27.55 -38.5 26.25 -33.75 Z
M 33.7 -12.35
L 35.9 -12.5
Q 27 -7.9 22.55 -6.5 17.2 -4.75 11.55 -4.85 5.85 -5 -0.05 -2.95 2.1 -5.35 6.1 -6.6 6.1 -6.65 6.1 -6.7
M 43.7 -27.15
Q 48.6 -27.8 52 -26.1 55.4 -24.45 54.7 -22.55 54.45 -22.2 54 -22.05 50.8 -21.7 48.85 -20.8 49.6 -21.9 52.45 -22.6 51.1 -23.55 49.55 -23.6
L 52.35 -24.6
Q 49.3 -26.75 43.7 -27.15 Z
M 82.95 -29.55
Q 82.95 -29.4 82.95 -29.25 79.9 -19.65 76.65 -17.45 77.8 -19.4 78.15 -21.3
L 74.4 -19.8
M 49 -15.6
Q 62.7 -13.8 72.95 -16.85 57.55 -16.45 49 -15.6 Z
M 24.8 21.35
Q 22.0529296875 18.405859375 18.525 14.775 14.996875 11.14609375 7.6 10.2 4.2 9.6 1.6 10.2 -3.5 11.75 -6.45 15.85
M 7.7 29.7
Q 5.3 30.8 3.5 34.25 1.65 37.65 0.2 39.8 -1.25 41.9 -4 44.15 -5.55 45.35 -6.25 45.8 1.25 42.1 3.45 36.45 4.35 34.6 6.55 36.25 5.5 32.85 7.15 31 8.95 29.15 7.7 29.7 Z
M -34.025 18
Q -33.31875 14.4318359375 -33.25 11.725 -33.1908203125 9.00390625 -32.475 7.25 -31.7533203125 5.5095703125 -29.575 3.325 -27.8529296875 1.6 -27.625 1.075 -27.6265625 1.975390625 -26 3.15
M -46.75 31.45
Q -42.8939453125 23.0544921875 -35.3 19.3 -34.1291015625 18.7458984375 -34 18
M -65.45 44.85
Q -67.3 46.8 -65.7 48.2 -64.15 49.55 -63.55 49.95 -68.35 48.8 -69.55 51 -71.35 54.25 -74.6 57.1 -77.85 59.9 -81 60.5 -83.3 60.75 -82.85 60.3 -74.6 57.35 -71.35 50.55 -70.45 48.45 -68.6 46.3 -66.8 44.1 -63.75 42.85 -63.65 42.85 -65.45 44.85 Z"/>
</defs>

<g transform="matrix( 2.0035858154296875, 0, 0, 2.0035858154296875, 249.95,249.95) ">
<g transform="matrix( 1, 0, 0, 1, 0,0) ">
<use xlink:href="#Logo_0_Layer0_0_1_STROKES"/>
</g>

<g transform="matrix( 0.999908447265625, 0, 0, 0.999908447265625, 0,0) ">
<g transform="matrix( 1, 0, 0, 1, 0,0) ">
<use xlink:href="#Symbol_1_0_Layer0_0_FILL"/>
</g>
</g>

<g transform="matrix( 1, 0, 0, 1, -29.35,21.15) ">
<g transform="matrix( 1, 0, 0, 1, 0,0) ">
<use xlink:href="#Symbol_5_0_Layer0_0_FILL"/>
</g>
</g>

<g transform="matrix( 1, 0, 0, 1, 1.6,-13.3) ">
<g transform="matrix( 1, 0, 0, 1, 0,0) ">
<use xlink:href="#Symbol_2_0_Layer0_0_FILL"/>

<use xlink:href="#Symbol_2_0_Layer0_0_1_STROKES"/>
</g>
</g>

<g transform="matrix( 1, 0, 0, 1, 35.8,75.35) ">
<g transform="matrix( 1, 0, 0, 1, 0,0) ">
<use xlink:href="#Symbol_3_0_Layer0_0_FILL"/>

<use xlink:href="#Symbol_3_0_Layer0_0_1_STROKES"/>
</g>
</g>

<g transform="matrix( 1, 0, 0, 1, 5,-20) ">
<g transform="matrix( 1, 0, 0, 1, 0,0) ">
<use xlink:href="#Symbol_4_0_Layer0_0_FILL"/>

<use xlink:href="#Symbol_4_0_Layer0_0_1_STROKES"/>
</g>
</g>
</g>
</svg>
